<svg width="54" height="54" viewBox="0 0 54 54" fill="none" xmlns="http://www.w3.org/2000/svg">
    <path fill-rule="evenodd" clip-rule="evenodd" d="M3 27C3 27.442 3.1806 27.8658 3.50207 28.1783C3.82354 28.4909 4.25955 28.6664 4.71418 28.6664L45.1447 28.6664L34.3557 39.1516C34.0338 39.4645 33.853 39.8889 33.853 40.3315C33.853 40.774 34.0338 41.1984 34.3557 41.5113C34.6776 41.8242 35.1141 42 35.5694 42C36.0246 42 36.4611 41.8242 36.783 41.5113L50.4964 28.1798C50.656 28.025 50.7827 27.8411 50.8691 27.6387C50.9555 27.4362 51 27.2192 51 27C51 26.7808 50.9555 26.5638 50.8691 26.3613C50.7827 26.1589 50.656 25.975 50.4964 25.8202L36.783 12.4887C36.6236 12.3338 36.4344 12.2109 36.2262 12.127C36.0179 12.0432 35.7947 12 35.5694 12C35.1141 12 34.6776 12.1758 34.3557 12.4887C34.0338 12.8016 33.853 13.226 33.853 13.6685C33.853 14.1111 34.0338 14.5355 34.3557 14.8484L45.1447 25.3336L4.71418 25.3336C4.25955 25.3336 3.82354 25.5091 3.50207 25.8217C3.1806 26.1342 3 26.558 3 27Z" fill="#1773E0"/>
</svg>
