<svg width="58" height="58" viewBox="0 0 58 58" fill="none" xmlns="http://www.w3.org/2000/svg">
    <path fill-rule="evenodd" clip-rule="evenodd" d="M28.76 18C27.3612 17.9981 26.0089 18.5019 24.9521 19.4183C23.8954 20.3348 23.2055 21.6023 23.0095 22.9873C22.8135 24.3723 23.1246 25.7815 23.8856 26.9552C24.6465 28.1289 25.806 28.9881 27.1504 29.3744C25.24 29.6064 23.6016 30.2816 22.3664 31.4992C20.7952 33.0464 20 35.352 20 38.36C20 38.5616 20.0801 38.7549 20.2226 38.8974C20.3651 39.0399 20.5584 39.12 20.76 39.12C20.9616 39.12 21.1549 39.0399 21.2974 38.8974C21.4399 38.7549 21.52 38.5616 21.52 38.36C21.52 35.608 22.2448 33.752 23.4336 32.5808C24.624 31.408 26.4032 30.8 28.76 30.8C31.1168 30.8 32.896 31.408 34.088 32.5808C35.2752 33.7536 36 35.608 36 38.36C36 38.5616 36.0801 38.7549 36.2226 38.8974C36.3651 39.0399 36.5584 39.12 36.76 39.12C36.9616 39.12 37.1549 39.0399 37.2974 38.8974C37.4399 38.7549 37.52 38.5616 37.52 38.36C37.52 35.352 36.7248 33.048 35.152 31.4992C33.92 30.2832 32.28 29.6064 30.3696 29.3744C31.7095 28.9837 32.8637 28.1233 33.6207 26.9507C34.3777 25.7781 34.6867 24.372 34.4912 22.9901C34.2956 21.6081 33.6086 20.343 32.5559 19.4265C31.5033 18.51 30.1557 18.0036 28.76 18ZM24.48 23.8C24.48 22.6649 24.9309 21.5762 25.7336 20.7736C26.5362 19.9709 27.6249 19.52 28.76 19.52C29.8951 19.52 30.9838 19.9709 31.7864 20.7736C32.5891 21.5762 33.04 22.6649 33.04 23.8C33.04 24.9351 32.5891 26.0238 31.7864 26.8264C30.9838 27.6291 29.8951 28.08 28.76 28.08C27.6249 28.08 26.5362 27.6291 25.7336 26.8264C24.9309 26.0238 24.48 24.9351 24.48 23.8Z" fill="#001F44" stroke="#001F44" stroke-width="0.4"/>
</svg>
