<svg width="0" height="0" class="hidden">
    <symbol fill="none" xmlns="http://www.w3.org/2000/svg" viewBox="0 0 54 54" id="arrow">
        <path fill-rule="evenodd" clip-rule="evenodd" d="M3 27C3 27.442 3.1806 27.8658 3.50207 28.1783C3.82354 28.4909 4.25955 28.6664 4.71418 28.6664L45.1447 28.6664L34.3557 39.1516C34.0338 39.4645 33.853 39.8889 33.853 40.3315C33.853 40.774 34.0338 41.1984 34.3557 41.5113C34.6776 41.8242 35.1141 42 35.5694 42C36.0246 42 36.4611 41.8242 36.783 41.5113L50.4964 28.1798C50.656 28.025 50.7827 27.8411 50.8691 27.6387C50.9555 27.4362 51 27.2192 51 27C51 26.7808 50.9555 26.5638 50.8691 26.3613C50.7827 26.1589 50.656 25.975 50.4964 25.8202L36.783 12.4887C36.6236 12.3338 36.4344 12.2109 36.2262 12.127C36.0179 12.0432 35.7947 12 35.5694 12C35.1141 12 34.6776 12.1758 34.3557 12.4887C34.0338 12.8016 33.853 13.226 33.853 13.6685C33.853 14.1111 34.0338 14.5355 34.3557 14.8484L45.1447 25.3336L4.71418 25.3336C4.25955 25.3336 3.82354 25.5091 3.50207 25.8217C3.1806 26.1342 3 26.558 3 27Z" fill="#1773E0"></path>
    </symbol>
    <symbol fill="none" xmlns="http://www.w3.org/2000/svg" viewBox="0 0 92 93" id="clock">
        <path d="M46 90.5C70.3005 90.5 90 70.8005 90 46.5C90 22.1995 70.3005 2.5 46 2.5C21.6995 2.5 2 22.1995 2 46.5C2 70.8005 21.6995 90.5 46 90.5Z" stroke="white" stroke-width="4" stroke-linecap="round" stroke-linejoin="round"></path>
        <path d="M41.1113 26.9453V51.3898H65.5558" stroke="white" stroke-width="4" stroke-linecap="round" stroke-linejoin="round"></path>
    </symbol>
    <symbol xmlns="http://www.w3.org/2000/svg" viewBox="0 0 240 40" id="logo">
        <path d="M38.5529 13.4988H33.9304L36.2484 8.80854L38.5529 13.4988Z"></path>
        <path d="M58.8236 27.4232H54.3436V23.8499H58.9703C59.6903 23.8499 60.2281 24.0099 60.5836 24.3299C60.9392 24.641 61.117 25.081 61.117 25.6499C61.117 26.2277 60.9259 26.6677 60.5436 26.9699C60.1703 27.2721 59.597 27.4232 58.8236 27.4232Z"></path>
        <path d="M66.8746 28.0099H71.4212L69.1546 23.3965L66.8746 28.0099Z"></path>
        <path d="M110.729 28.0099H115.275L113.009 23.3965L110.729 28.0099Z"></path>
        <path d="M195.777 27.4232H191.297V23.8499H195.923C196.643 23.8499 197.181 24.0099 197.537 24.3299C197.892 24.641 198.07 25.081 198.07 25.6499C198.07 26.2277 197.879 26.6677 197.497 26.9699C197.123 27.2721 196.55 27.4232 195.777 27.4232Z"></path>
        <path d="M50.9758 16.3725H54.1071C54.9295 16.3725 55.5937 16.2867 56.0998 16.115C56.6059 15.9433 56.9945 15.6993 57.2656 15.383C57.5457 15.0577 57.731 14.6691 57.8214 14.2172C57.9208 13.7563 57.9705 13.2412 57.9705 12.6719C57.9705 12.0754 57.8982 11.5648 57.7536 11.1401C57.609 10.7154 57.374 10.3674 57.0487 10.0963C56.7324 9.81617 56.3167 9.61284 55.8016 9.48632C55.2955 9.35077 54.6765 9.27847 53.9445 9.26943H50.9758V16.3725Z"></path>
        <path d="M111.401 13.4988H106.778L109.096 8.80854L111.401 13.4988Z"></path>
        <path d="M147.473 8.97121C146.849 8.97121 146.28 9.05254 145.765 9.21521C145.259 9.37788 144.825 9.62188 144.464 9.94721C144.111 10.2635 143.835 10.6657 143.637 11.1537C143.447 11.6326 143.352 12.1974 143.352 12.8481C143.352 13.4717 143.447 14.0229 143.637 14.5019C143.835 14.9718 144.111 15.3694 144.464 15.6948C144.825 16.0111 145.259 16.2551 145.765 16.4268C146.28 16.5894 146.849 16.6708 147.473 16.6708C148.096 16.6708 148.661 16.5894 149.167 16.4268C149.682 16.2641 150.116 16.0246 150.469 15.7083C150.83 15.383 151.106 14.9854 151.296 14.5154C151.494 14.0365 151.594 13.4807 151.594 12.8481C151.594 12.2245 151.494 11.6733 151.296 11.1943C151.106 10.7154 150.83 10.3132 150.469 9.98788C150.116 9.65351 149.682 9.40047 149.167 9.22877C148.661 9.05706 148.096 8.97121 147.473 8.97121Z"></path>
        <path d="M166.582 12.9023H171.137C171.923 12.9023 172.506 12.7487 172.885 12.4414C173.274 12.1342 173.468 11.6868 173.468 11.0994C173.468 10.5211 173.287 10.0737 172.926 9.75743C172.564 9.4321 172.018 9.26943 171.286 9.26943H166.582V12.9023Z"></path>
        <path fill-rule="evenodd" clip-rule="evenodd" d="M15.8336 0.000103421L218.889 0V40L15.8336 40.0001V34.2858H21.1113V28.5715H15.8336V22.8572H21.1113V17.143H15.8336V11.4287H21.1113V5.71439H15.8336V0.000103421ZM80.1846 16.1692C79.8232 16.6572 79.3171 17.0639 78.6664 17.3892C78.0158 17.7055 77.1708 17.8637 76.1315 17.8637C75.2821 17.8637 74.5229 17.7552 73.8542 17.5383C73.1855 17.3124 72.6161 16.9916 72.1462 16.5759C71.6853 16.1511 71.3329 15.6405 71.0889 15.0441C70.8449 14.4386 70.7229 13.7518 70.7229 12.9837V12.7261C70.7229 11.9218 70.8449 11.2124 71.0889 10.5979C71.3329 9.98336 71.6853 9.46825 72.1462 9.05254C72.6161 8.6278 73.1855 8.31151 73.8542 8.10365C74.5229 7.88677 75.2821 7.77832 76.1315 7.77832C77.5684 7.77832 78.7342 8.07202 79.6289 8.65943C80.5326 9.24684 81.0838 10.1325 81.2826 11.3163H79.8458C79.7554 10.9639 79.6018 10.6431 79.3849 10.3539C79.177 10.0557 78.9104 9.80714 78.5851 9.60832C78.2688 9.40047 77.9028 9.24232 77.4871 9.13388C77.0804 9.01639 76.6286 8.95765 76.1315 8.95765C75.4718 8.95765 74.8889 9.05254 74.3829 9.24232C73.8858 9.4321 73.4701 9.69869 73.1358 10.0421C72.8014 10.3855 72.5484 10.7967 72.3766 11.2757C72.214 11.7456 72.1326 12.2697 72.1326 12.8481C72.1326 13.3994 72.214 13.91 72.3766 14.3799C72.5484 14.8498 72.8014 15.2565 73.1358 15.5999C73.4701 15.9342 73.8858 16.2008 74.3829 16.3997C74.8889 16.5894 75.4718 16.6843 76.1315 16.6843C76.7641 16.6843 77.3154 16.612 77.7853 16.4674C78.2552 16.3228 78.6529 16.124 78.9782 15.871C79.3126 15.618 79.5746 15.3288 79.7644 15.0034C79.9632 14.6691 80.0943 14.3166 80.1575 13.9461H75.02V12.7261H81.5131V17.5519H80.1846V16.1692ZM31.9242 17.5654L33.334 14.6917H39.1493L40.5591 17.5654H42.0502L37.3736 8.07654H35.1233L30.4467 17.5654H31.9242ZM147.685 29.0365C147.428 30.1565 146.859 30.9832 145.979 31.5165C145.099 32.041 143.97 32.3032 142.592 32.3032C141.757 32.3032 141.01 32.1921 140.352 31.9699C139.694 31.7477 139.139 31.4321 138.685 31.0232C138.232 30.6054 137.885 30.0988 137.645 29.5032C137.405 28.9077 137.285 28.2365 137.285 27.4899V27.2499C137.285 26.4765 137.405 25.7877 137.645 25.1832C137.885 24.5788 138.232 24.0721 138.685 23.6632C139.139 23.2454 139.694 22.9299 140.352 22.7165C141.01 22.4943 141.757 22.3832 142.592 22.3832C143.303 22.3832 143.948 22.4543 144.525 22.5965C145.112 22.7388 145.619 22.9565 146.045 23.2499C146.481 23.5343 146.837 23.8943 147.112 24.3299C147.388 24.7654 147.57 25.2765 147.659 25.8632H146.219C146.13 25.5165 145.979 25.201 145.765 24.9165C145.561 24.6232 145.303 24.3743 144.992 24.1699C144.69 23.9565 144.334 23.7965 143.925 23.6899C143.525 23.5743 143.081 23.5165 142.592 23.5165C141.943 23.5165 141.374 23.6143 140.885 23.8099C140.397 23.9965 139.988 24.2588 139.659 24.5965C139.33 24.9343 139.081 25.3432 138.912 25.8232C138.752 26.2943 138.672 26.8143 138.672 27.3832C138.672 27.9254 138.752 28.4277 138.912 28.8899C139.081 29.3521 139.33 29.7521 139.659 30.0899C139.988 30.4277 140.397 30.6943 140.885 30.8899C141.374 31.0765 141.943 31.1699 142.592 31.1699C143.579 31.1699 144.392 30.9832 145.032 30.6099C145.681 30.2277 146.094 29.7032 146.272 29.0365H147.685ZM39.12 28.2499C39.0667 29.6454 38.6622 30.6677 37.9067 31.3165C37.1511 31.9565 36.0356 32.2765 34.56 32.2765C33.0844 32.2765 31.9644 31.9521 31.2 31.3032C30.4444 30.6454 30.0444 29.6277 30 28.2499V22.6765H31.3067V27.6365C31.3067 28.1432 31.3422 28.6099 31.4133 29.0365C31.4844 29.4632 31.6311 29.8321 31.8533 30.1432C32.0844 30.4454 32.4089 30.681 32.8267 30.8499C33.2533 31.0188 33.8267 31.1032 34.5467 31.1032C35.2667 31.1032 35.84 31.0232 36.2667 30.8632C36.7022 30.6943 37.0311 30.4588 37.2533 30.1565C37.4844 29.8543 37.6356 29.4943 37.7067 29.0765C37.7778 28.6499 37.8133 28.1788 37.8133 27.6632V22.6765H39.12V28.2499ZM42.1561 30.4765V32.0099H40.8495V22.6765H42.1561V28.9165L49.6761 22.6765H51.6095L47.7295 25.8765L51.7028 32.0099H50.1428L46.7161 26.7165L42.1561 30.4765ZM54.3436 32.0099V28.5965H59.1836L61.117 31.9965H62.6503L60.5836 28.4232C61.1703 28.2454 61.6281 27.9388 61.957 27.5032C62.2948 27.0677 62.477 26.4765 62.5036 25.7299C62.5036 25.2232 62.4236 24.7788 62.2636 24.3965C62.1125 24.0143 61.8948 23.6988 61.6103 23.4499C61.3348 23.1921 60.997 23.001 60.597 22.8765C60.197 22.7432 59.7525 22.6765 59.2636 22.6765H53.037V32.0099H54.3436ZM66.2879 29.1832L64.9013 32.0099H63.4479L68.0479 22.6765H70.2613L74.8613 32.0099H73.3946L72.0079 29.1832H66.2879ZM84.5276 32.0099V30.8365H80.8476V23.8499H84.5276V22.6765H75.9276V23.8499H79.5409V30.8365H75.9276V32.0099H84.5276ZM87.5728 23.5432V32.0099H86.2661V22.6765H88.5462L94.5995 31.1432V22.6765H95.8928V32.0099H93.5995L87.5728 23.5432ZM106.364 32.0099V30.8365H102.684V23.8499H106.364V22.6765H97.7635V23.8499H101.377V30.8365H97.7635V32.0099H106.364ZM110.142 29.1832L108.755 32.0099H107.302L111.902 22.6765H114.115L118.715 32.0099H117.249L115.862 29.1832H110.142ZM121.088 32.0099V23.5432L127.115 32.0099H129.408V22.6765H128.115V31.1432L122.062 22.6765H119.782V32.0099H121.088ZM156.93 31.3165C157.686 30.6677 158.09 29.6454 158.143 28.2499V22.6765H156.837V27.6632C156.837 28.1788 156.801 28.6499 156.73 29.0765C156.659 29.4943 156.508 29.8543 156.277 30.1565C156.055 30.4588 155.726 30.6943 155.29 30.8632C154.863 31.0232 154.29 31.1032 153.57 31.1032C152.85 31.1032 152.277 31.0188 151.85 30.8499C151.432 30.681 151.108 30.4454 150.877 30.1432C150.655 29.8321 150.508 29.4632 150.437 29.0365C150.366 28.6099 150.33 28.1432 150.33 27.6365V22.6765H149.023V28.2499C149.068 29.6277 149.468 30.6454 150.223 31.3032C150.988 31.9521 152.108 32.2765 153.583 32.2765C155.059 32.2765 156.175 31.9565 156.93 31.3165ZM167.793 30.8365V32.0099H159.873V22.6765H161.18V30.8365H167.793ZM173.917 32.0099V23.8499H178.077V22.6765H168.464V23.8499H172.611V32.0099H173.917ZM188.261 28.2499C188.207 29.6454 187.803 30.6677 187.047 31.3165C186.292 31.9565 185.176 32.2765 183.701 32.2765C182.225 32.2765 181.105 31.9521 180.341 31.3032C179.585 30.6454 179.185 29.6277 179.141 28.2499V22.6765H180.447V27.6365C180.447 28.1432 180.483 28.6099 180.554 29.0365C180.625 29.4632 180.772 29.8321 180.994 30.1432C181.225 30.4454 181.55 30.681 181.967 30.8499C182.394 31.0188 182.967 31.1032 183.687 31.1032C184.407 31.1032 184.981 31.0232 185.407 30.8632C185.843 30.6943 186.172 30.4588 186.394 30.1565C186.625 29.8543 186.776 29.4943 186.847 29.0765C186.918 28.6499 186.954 28.1788 186.954 27.6632V22.6765H188.261V28.2499ZM191.297 32.0099V28.5965H196.137L198.07 31.9965H199.603L197.537 28.4232C198.123 28.2454 198.581 27.9388 198.91 27.5032C199.248 27.0677 199.43 26.4765 199.457 25.7299C199.457 25.2232 199.377 24.7788 199.217 24.3965C199.066 24.0143 198.848 23.6988 198.563 23.4499C198.288 23.1921 197.95 23.001 197.55 22.8765C197.15 22.7432 196.706 22.6765 196.217 22.6765H189.99V32.0099H191.297ZM210.108 30.8365V32.0099H201.201V22.6765H209.668V23.8499H202.508V26.3699H208.321V27.5432H202.508V30.8365H210.108ZM59.3803 12.5634C59.3803 13.4671 59.2718 14.2353 59.0549 14.8679C58.8471 15.5005 58.5353 16.0156 58.1196 16.4132C57.7129 16.8108 57.2114 17.1045 56.6149 17.2943C56.0185 17.4751 55.3362 17.5654 54.568 17.5654H49.6474V8.07654H53.8767C54.3014 8.07654 54.7307 8.09462 55.1645 8.13076C55.6073 8.16691 56.032 8.23921 56.4387 8.34765C56.8454 8.4561 57.2249 8.60973 57.5774 8.80854C57.9389 9.00736 58.2506 9.26943 58.5127 9.59477C58.7838 9.9201 58.9962 10.3222 59.1498 10.8012C59.3034 11.2711 59.3803 11.836 59.3803 12.4957V12.5634ZM69.484 17.5654V16.3725H65.7427V9.26943H69.484V8.07654H60.7407V9.26943H64.4142V16.3725H60.7407V17.5654H69.484ZM92.0281 17.5654V16.3725H88.2867V9.26943H92.0281V8.07654H83.2847V9.26943H86.9583V16.3725H83.2847V17.5654H92.0281ZM98.662 9.26943V17.5654H97.3336V9.26943H93.1178V8.07654H102.891V9.26943H98.662ZM104.772 17.5654L106.182 14.6917H111.997L113.407 17.5654H114.898L110.221 8.07654H107.971L103.295 17.5654H104.772ZM124.034 16.3725V17.5654H115.982V8.07654H117.311V16.3725H124.034ZM138.482 16.0743C138.69 15.5954 138.794 14.9763 138.794 14.2172V9.28299H141.125V8.07654H133.602L133.588 9.28299H137.452V14.5154C137.452 15.3017 137.239 15.8574 136.814 16.1828C136.399 16.4991 135.834 16.6572 135.12 16.6572C134.352 16.6572 133.783 16.4765 133.412 16.115C133.051 15.7445 132.87 15.1119 132.87 14.2172H131.501C131.501 14.9763 131.623 15.5954 131.867 16.0743C132.111 16.5442 132.413 16.9102 132.775 17.1723C133.136 17.4344 133.525 17.6106 133.941 17.701C134.365 17.8004 134.749 17.8501 135.093 17.8501C135.581 17.8501 136.046 17.8049 136.489 17.7145C136.941 17.6242 137.334 17.448 137.668 17.1859C138.012 16.9148 138.283 16.5442 138.482 16.0743ZM141.942 12.7261C141.969 11.8676 142.118 11.1265 142.389 10.503C142.67 9.87943 143.049 9.36884 143.528 8.97121C144.016 8.56454 144.59 8.26632 145.25 8.07654C145.918 7.87773 146.66 7.77832 147.473 7.77832C148.286 7.77832 149.023 7.88225 149.682 8.0901C150.351 8.28891 150.925 8.59165 151.404 8.99832C151.892 9.40499 152.271 9.9201 152.543 10.5437C152.823 11.1582 152.976 11.8857 153.004 12.7261V12.9701C152.976 13.8105 152.823 14.5425 152.543 15.1661C152.271 15.7806 151.892 16.2867 151.404 16.6843C150.925 17.082 150.351 17.3757 149.682 17.5654C149.023 17.7642 148.286 17.8637 147.473 17.8637C146.66 17.8637 145.918 17.7642 145.25 17.5654C144.59 17.3757 144.016 17.082 143.528 16.6843C143.049 16.2777 142.67 15.7671 142.389 15.1525C142.118 14.538 141.969 13.8105 141.942 12.9701V12.7261ZM162.262 16.8605C163.03 16.2008 163.441 15.1616 163.495 13.7428V8.07654H162.167V13.1463C162.167 13.6705 162.131 14.1494 162.058 14.5832C161.986 15.008 161.832 15.374 161.597 15.6812C161.371 15.9885 161.037 16.228 160.594 16.3997C160.161 16.5623 159.578 16.6437 158.846 16.6437C158.114 16.6437 157.531 16.5578 157.097 16.3861C156.672 16.2144 156.342 15.9749 156.107 15.6677C155.881 15.3514 155.732 14.9763 155.66 14.5425C155.588 14.1088 155.552 13.6343 155.552 13.1192V8.07654H154.223V13.7428C154.268 15.1435 154.675 16.1782 155.443 16.847C156.22 17.5067 157.359 17.8365 158.859 17.8365C160.359 17.8365 161.493 17.5112 162.262 16.8605ZM166.582 14.0952V17.5654H165.253V8.07654H171.584C172.081 8.07654 172.533 8.14432 172.939 8.27988C173.346 8.40639 173.69 8.60069 173.97 8.86277C174.259 9.1158 174.48 9.43662 174.634 9.82521C174.797 10.2138 174.878 10.6657 174.878 11.1808C174.851 11.9399 174.666 12.5408 174.322 12.9837C173.988 13.4265 173.522 13.7382 172.926 13.919L175.027 17.5519H173.468L171.503 14.0952H166.582ZM177.98 17.5654V8.95765L184.107 17.5654H186.438V8.07654H185.124V16.6843L178.969 8.07654H176.651V17.5654H177.98ZM197.395 16.3725V17.5654H188.34V8.07654H196.948V9.26943H189.669V11.8314H195.579V13.0243H189.669V16.3725H197.395ZM207.729 17.5654V16.3725H204.245V14.8137L208.908 8.07654H207.309L203.622 13.4717L199.962 8.07654H198.349L202.917 14.7594V16.3725H199.46V17.5654H207.729Z"></path>
        <path d="M10.5557 11.4287V5.71439H15.8336V11.4287H10.5557Z"></path>
        <path fill-rule="evenodd" clip-rule="evenodd" d="M10.5557 17.143V11.4287H5.27785V17.143H0V22.8572H5.27785V28.5715H10.5557V34.2858H15.8336V28.5715H10.5557V22.8572H15.8336V17.143H10.5557ZM10.5557 17.143V22.8572H5.27785V17.143H10.5557Z"></path>
        <path d="M224.167 34.2858H218.889L218.889 40L224.167 40.0001V34.2858Z"></path>
        <path fill-rule="evenodd" clip-rule="evenodd" d="M224.167 28.5715V34.2858H229.445V28.5715H234.723V22.8572H240.001V17.143H234.723V11.4287H229.445V5.71439H224.167V0.000105116L218.889 0L218.889 5.71439H224.167V11.4287H218.889V17.143H224.167V22.8572H218.889V28.5715H224.167ZM229.445 22.8572V28.5715H224.167V22.8572H229.445ZM229.445 17.143H234.723V22.8572H229.445V17.143ZM229.445 17.143H224.167V11.4287H229.445V17.143Z"></path>
    </symbol>
    <symbol fill="none" xmlns="http://www.w3.org/2000/svg" viewBox="0 0 56 93" id="question">
        <path d="M28.007 18.2V18.1999L27.993 18.2C22.4134 18.2559 17.9667 22.6992 17.9667 28.1C17.9667 30.3511 17.0596 32.512 15.4416 34.1069C13.8233 35.7021 11.6263 36.6 9.33333 36.6C7.04041 36.6 4.84339 35.7021 3.22507 34.1069C1.6071 32.512 0.7 30.3511 0.7 28.1C0.7 13.3623 12.7517 1.44327 27.6394 1.203C27.6399 1.203 27.6405 1.20299 27.641 1.20298L27.9044 1.2H28.0956L28.3588 1.20298C28.3594 1.20298 28.36 1.20299 28.3605 1.203C43.2484 1.4463 55.3 13.3624 55.3 28.1C55.3 39.8462 47.6465 49.7975 37.005 53.4775L36.5338 53.6405V54.1391V58.7667C36.5338 61.0177 35.6267 63.1787 34.0087 64.7735C32.3904 66.3687 30.1934 67.2667 27.9004 67.2667C25.6075 67.2667 23.4105 66.3687 21.7922 64.7735C20.1742 63.1787 19.2671 61.0177 19.2671 58.7667V46.5C19.2671 44.2489 20.1742 42.088 21.7922 40.4931C23.4105 38.8979 25.6075 38 27.9004 38C33.5296 38 38.0333 33.5341 38.0333 28.1C38.0333 22.6992 33.5866 18.2559 28.007 18.2ZM28.2597 5.93342V5.93333H28.2489H28.0996H27.7511V5.93325L27.7403 5.93342C15.4652 6.12312 5.52222 15.9497 5.52222 28.1C5.52222 29.1023 5.92623 30.0614 6.64204 30.767C7.35751 31.4722 8.32579 31.8667 9.33333 31.8667C10.3409 31.8667 11.3092 31.4722 12.0246 30.767C12.7404 30.0614 13.1444 29.1023 13.1444 28.1C13.1444 20.0892 19.7455 13.5296 27.9778 13.4667H28.0222C36.2545 13.5296 42.8556 20.0892 42.8556 28.1C42.8556 36.1525 36.191 42.7333 27.9004 42.7333C26.8929 42.7333 25.9246 43.1278 25.2092 43.833C24.4933 44.5386 24.0893 45.4977 24.0893 46.5V58.7667C24.0893 59.7689 24.4933 60.7281 25.2092 61.4337C25.9246 62.1389 26.8929 62.5333 27.9004 62.5333C28.908 62.5333 29.8763 62.1389 30.5917 61.4337C31.3075 60.7281 31.7116 59.7689 31.7116 58.7667V51.8667L31.7116 51.8658C31.7109 51.3424 31.8871 50.8325 32.2141 50.4167C32.5413 50.0007 33.0012 49.7022 33.5224 49.5707C43.2597 47.1227 50.4778 38.4524 50.4778 28.1C50.4778 15.9498 40.538 6.12312 28.2597 5.93342ZM28 79.5333C26.9925 79.5333 26.0242 79.9278 25.3087 80.633C24.5929 81.3386 24.1889 82.2977 24.1889 83.3C24.1889 84.3023 24.5929 85.2614 25.3087 85.967C26.0242 86.6722 26.9925 87.0667 28 87.0667C29.0075 87.0667 29.9758 86.6722 30.6913 85.967C31.4071 85.2614 31.8111 84.3023 31.8111 83.3C31.8111 82.2977 31.4071 81.3386 30.6913 80.633C29.9758 79.9278 29.0075 79.5333 28 79.5333ZM19.3667 83.3C19.3667 81.0489 20.2738 78.888 21.8917 77.2931C23.5101 75.698 25.7071 74.8 28 74.8C30.2929 74.8 32.49 75.698 34.1083 77.2931C35.7262 78.888 36.6333 81.0489 36.6333 83.3C36.6333 85.5511 35.7262 87.712 34.1083 89.3069C32.49 90.9021 30.2929 91.8 28 91.8C25.7071 91.8 23.5101 90.9021 21.8917 89.3069C20.2738 87.712 19.3667 85.5511 19.3667 83.3Z" fill="white" stroke="#1772DE" stroke-width="1.4"></path>
    </symbol>
    <symbol xmlns="http://www.w3.org/2000/svg" viewBox="0 0 58 58" id="account_icon">
        <path fill-rule="evenodd" clip-rule="evenodd" d="M28.76 18C27.3612 17.9981 26.0089 18.5019 24.9521 19.4183C23.8954 20.3348 23.2055 21.6023 23.0095 22.9873C22.8135 24.3723 23.1246 25.7815 23.8856 26.9552C24.6465 28.1289 25.806 28.9881 27.1504 29.3744C25.24 29.6064 23.6016 30.2816 22.3664 31.4992C20.7952 33.0464 20 35.352 20 38.36C20 38.5616 20.0801 38.7549 20.2226 38.8974C20.3651 39.0399 20.5584 39.12 20.76 39.12C20.9616 39.12 21.1549 39.0399 21.2974 38.8974C21.4399 38.7549 21.52 38.5616 21.52 38.36C21.52 35.608 22.2448 33.752 23.4336 32.5808C24.624 31.408 26.4032 30.8 28.76 30.8C31.1168 30.8 32.896 31.408 34.088 32.5808C35.2752 33.7536 36 35.608 36 38.36C36 38.5616 36.0801 38.7549 36.2226 38.8974C36.3651 39.0399 36.5584 39.12 36.76 39.12C36.9616 39.12 37.1549 39.0399 37.2974 38.8974C37.4399 38.7549 37.52 38.5616 37.52 38.36C37.52 35.352 36.7248 33.048 35.152 31.4992C33.92 30.2832 32.28 29.6064 30.3696 29.3744C31.7095 28.9837 32.8637 28.1233 33.6207 26.9507C34.3777 25.7781 34.6867 24.372 34.4912 22.9901C34.2956 21.6081 33.6086 20.343 32.5559 19.4265C31.5033 18.51 30.1557 18.0036 28.76 18ZM24.48 23.8C24.48 22.6649 24.9309 21.5762 25.7336 20.7736C26.5362 19.9709 27.6249 19.52 28.76 19.52C29.8951 19.52 30.9838 19.9709 31.7864 20.7736C32.5891 21.5762 33.04 22.6649 33.04 23.8C33.04 24.9351 32.5891 26.0238 31.7864 26.8264C30.9838 27.6291 29.8951 28.08 28.76 28.08C27.6249 28.08 26.5362 27.6291 25.7336 26.8264C24.9309 26.0238 24.48 24.9351 24.48 23.8Z" stroke-width="0.4"></path>
    </symbol>
</svg>