<svg width="56" height="93" viewBox="0 0 56 93" fill="none" xmlns="http://www.w3.org/2000/svg">
    <path d="M28.007 18.2V18.1999L27.993 18.2C22.4134 18.2559 17.9667 22.6992 17.9667 28.1C17.9667 30.3511 17.0596 32.512 15.4416 34.1069C13.8233 35.7021 11.6263 36.6 9.33333 36.6C7.04041 36.6 4.84339 35.7021 3.22507 34.1069C1.6071 32.512 0.7 30.3511 0.7 28.1C0.7 13.3623 12.7517 1.44327 27.6394 1.203C27.6399 1.203 27.6405 1.20299 27.641 1.20298L27.9044 1.2H28.0956L28.3588 1.20298C28.3594 1.20298 28.36 1.20299 28.3605 1.203C43.2484 1.4463 55.3 13.3624 55.3 28.1C55.3 39.8462 47.6465 49.7975 37.005 53.4775L36.5338 53.6405V54.1391V58.7667C36.5338 61.0177 35.6267 63.1787 34.0087 64.7735C32.3904 66.3687 30.1934 67.2667 27.9004 67.2667C25.6075 67.2667 23.4105 66.3687 21.7922 64.7735C20.1742 63.1787 19.2671 61.0177 19.2671 58.7667V46.5C19.2671 44.2489 20.1742 42.088 21.7922 40.4931C23.4105 38.8979 25.6075 38 27.9004 38C33.5296 38 38.0333 33.5341 38.0333 28.1C38.0333 22.6992 33.5866 18.2559 28.007 18.2ZM28.2597 5.93342V5.93333H28.2489H28.0996H27.7511V5.93325L27.7403 5.93342C15.4652 6.12312 5.52222 15.9497 5.52222 28.1C5.52222 29.1023 5.92623 30.0614 6.64204 30.767C7.35751 31.4722 8.32579 31.8667 9.33333 31.8667C10.3409 31.8667 11.3092 31.4722 12.0246 30.767C12.7404 30.0614 13.1444 29.1023 13.1444 28.1C13.1444 20.0892 19.7455 13.5296 27.9778 13.4667H28.0222C36.2545 13.5296 42.8556 20.0892 42.8556 28.1C42.8556 36.1525 36.191 42.7333 27.9004 42.7333C26.8929 42.7333 25.9246 43.1278 25.2092 43.833C24.4933 44.5386 24.0893 45.4977 24.0893 46.5V58.7667C24.0893 59.7689 24.4933 60.7281 25.2092 61.4337C25.9246 62.1389 26.8929 62.5333 27.9004 62.5333C28.908 62.5333 29.8763 62.1389 30.5917 61.4337C31.3075 60.7281 31.7116 59.7689 31.7116 58.7667V51.8667L31.7116 51.8658C31.7109 51.3424 31.8871 50.8325 32.2141 50.4167C32.5413 50.0007 33.0012 49.7022 33.5224 49.5707C43.2597 47.1227 50.4778 38.4524 50.4778 28.1C50.4778 15.9498 40.538 6.12312 28.2597 5.93342ZM28 79.5333C26.9925 79.5333 26.0242 79.9278 25.3087 80.633C24.5929 81.3386 24.1889 82.2977 24.1889 83.3C24.1889 84.3023 24.5929 85.2614 25.3087 85.967C26.0242 86.6722 26.9925 87.0667 28 87.0667C29.0075 87.0667 29.9758 86.6722 30.6913 85.967C31.4071 85.2614 31.8111 84.3023 31.8111 83.3C31.8111 82.2977 31.4071 81.3386 30.6913 80.633C29.9758 79.9278 29.0075 79.5333 28 79.5333ZM19.3667 83.3C19.3667 81.0489 20.2738 78.888 21.8917 77.2931C23.5101 75.698 25.7071 74.8 28 74.8C30.2929 74.8 32.49 75.698 34.1083 77.2931C35.7262 78.888 36.6333 81.0489 36.6333 83.3C36.6333 85.5511 35.7262 87.712 34.1083 89.3069C32.49 90.9021 30.2929 91.8 28 91.8C25.7071 91.8 23.5101 90.9021 21.8917 89.3069C20.2738 87.712 19.3667 85.5511 19.3667 83.3Z" fill="white" stroke="#1772DE" stroke-width="1.4"/>
</svg>
